<mxfile host="app.diagrams.net" modified="2020-12-30T04:10:29.671Z" agent="5.0 (Windows NT 10.0; Win64; x64) AppleWebKit/537.36 (KHTML, like Gecko) Chrome/87.0.4280.88 Safari/537.36" etag="t32JZsvgte6YnP8BtcLR" version="14.0.0" type="github">
  <diagram id="M7uvhyfdQVmD4L9zIR1I" name="Page-1">
    <mxGraphModel dx="1038" dy="580" grid="1" gridSize="10" guides="1" tooltips="1" connect="1" arrows="1" fold="1" page="1" pageScale="1" pageWidth="827" pageHeight="1169" math="0" shadow="0">
      <root>
        <mxCell id="0" />
        <mxCell id="1" parent="0" />
        <mxCell id="f9v9HYBnzJGxfzAyJ9Rh-3" value="后台管理" style="rounded=0;whiteSpace=wrap;html=1;" vertex="1" parent="1">
          <mxGeometry x="340" y="240" width="120" height="30" as="geometry" />
        </mxCell>
        <mxCell id="f9v9HYBnzJGxfzAyJ9Rh-4" value="" style="rounded=0;whiteSpace=wrap;html=1;" vertex="1" parent="1">
          <mxGeometry x="340" y="270" width="120" height="60" as="geometry" />
        </mxCell>
        <mxCell id="f9v9HYBnzJGxfzAyJ9Rh-5" value="用户管理" style="rounded=0;whiteSpace=wrap;html=1;" vertex="1" parent="1">
          <mxGeometry x="140" y="370" width="120" height="30" as="geometry" />
        </mxCell>
        <mxCell id="f9v9HYBnzJGxfzAyJ9Rh-6" value="" style="rounded=0;whiteSpace=wrap;html=1;" vertex="1" parent="1">
          <mxGeometry x="140" y="400" width="120" height="60" as="geometry" />
        </mxCell>
        <mxCell id="f9v9HYBnzJGxfzAyJ9Rh-7" value="手写中文签名的检索系统" style="rounded=0;whiteSpace=wrap;html=1;" vertex="1" parent="1">
          <mxGeometry x="530" y="370" width="120" height="30" as="geometry" />
        </mxCell>
        <mxCell id="f9v9HYBnzJGxfzAyJ9Rh-8" value="" style="rounded=0;whiteSpace=wrap;html=1;" vertex="1" parent="1">
          <mxGeometry x="530" y="400" width="120" height="60" as="geometry" />
        </mxCell>
        <mxCell id="f9v9HYBnzJGxfzAyJ9Rh-9" value="" style="endArrow=none;dashed=1;html=1;exitX=0.5;exitY=0;exitDx=0;exitDy=0;entryX=0;entryY=0.25;entryDx=0;entryDy=0;" edge="1" parent="1" source="f9v9HYBnzJGxfzAyJ9Rh-5" target="f9v9HYBnzJGxfzAyJ9Rh-4">
          <mxGeometry width="50" height="50" relative="1" as="geometry">
            <mxPoint x="380" y="320" as="sourcePoint" />
            <mxPoint x="430" y="270" as="targetPoint" />
            <Array as="points">
              <mxPoint x="200" y="285" />
            </Array>
          </mxGeometry>
        </mxCell>
        <mxCell id="f9v9HYBnzJGxfzAyJ9Rh-10" value="" style="endArrow=none;dashed=1;html=1;exitX=1.025;exitY=0.136;exitDx=0;exitDy=0;exitPerimeter=0;entryX=0.581;entryY=-0.017;entryDx=0;entryDy=0;entryPerimeter=0;" edge="1" parent="1" source="f9v9HYBnzJGxfzAyJ9Rh-4" target="f9v9HYBnzJGxfzAyJ9Rh-7">
          <mxGeometry width="50" height="50" relative="1" as="geometry">
            <mxPoint x="520" y="310" as="sourcePoint" />
            <mxPoint x="570" y="260" as="targetPoint" />
            <Array as="points">
              <mxPoint x="600" y="278" />
            </Array>
          </mxGeometry>
        </mxCell>
        <mxCell id="f9v9HYBnzJGxfzAyJ9Rh-11" value="" style="endArrow=none;html=1;" edge="1" parent="1">
          <mxGeometry width="50" height="50" relative="1" as="geometry">
            <mxPoint x="190" y="360" as="sourcePoint" />
            <mxPoint x="210" y="360" as="targetPoint" />
            <Array as="points">
              <mxPoint x="200" y="374" />
            </Array>
          </mxGeometry>
        </mxCell>
        <mxCell id="f9v9HYBnzJGxfzAyJ9Rh-17" value="" style="endArrow=none;html=1;" edge="1" parent="1">
          <mxGeometry width="50" height="50" relative="1" as="geometry">
            <mxPoint x="610" y="354" as="sourcePoint" />
            <mxPoint x="590" y="354" as="targetPoint" />
            <Array as="points">
              <mxPoint x="600" y="374" />
            </Array>
          </mxGeometry>
        </mxCell>
        <mxCell id="f9v9HYBnzJGxfzAyJ9Rh-18" value="" style="endArrow=none;dashed=1;html=1;exitX=0.999;exitY=0.313;exitDx=0;exitDy=0;exitPerimeter=0;entryX=0;entryY=0.313;entryDx=0;entryDy=0;entryPerimeter=0;" edge="1" parent="1" source="f9v9HYBnzJGxfzAyJ9Rh-6" target="f9v9HYBnzJGxfzAyJ9Rh-8">
          <mxGeometry width="50" height="50" relative="1" as="geometry">
            <mxPoint x="370" y="400" as="sourcePoint" />
            <mxPoint x="420" y="350" as="targetPoint" />
          </mxGeometry>
        </mxCell>
        <mxCell id="f9v9HYBnzJGxfzAyJ9Rh-19" value="" style="endArrow=none;html=1;" edge="1" parent="1">
          <mxGeometry width="50" height="50" relative="1" as="geometry">
            <mxPoint x="505" y="429" as="sourcePoint" />
            <mxPoint x="505" y="409" as="targetPoint" />
            <Array as="points">
              <mxPoint x="535" y="419" />
            </Array>
          </mxGeometry>
        </mxCell>
      </root>
    </mxGraphModel>
  </diagram>
</mxfile>
